<?xml version="1.0" encoding="UTF-8"?>
<svg width="1200pt" height="1200pt" version="1.1" viewBox="0 0 1200 1200" xmlns="http://www.w3.org/2000/svg">
 <g fill="#fff">
  <path d="m345 1087.5c-4.1445 0-7.5 3.3555-7.5 7.5v11.25c0 10.352 8.3984 18.75 18.75 18.75h637.5c10.352 0 18.75-8.3984 18.75-18.75v-768.75c0-4.9688-1.9688-9.75-5.4922-13.258l-19.199-19.199c-4.7266-4.7227-12.809-1.3867-12.809 5.3086v720.9c0 31.07-25.18 56.25-56.25 56.25z"/>
  <path d="m782.01 80.492c-3.5078-3.5234-8.2891-5.4922-13.258-5.4922h-487.5c-10.352 0-18.75 8.3828-18.75 18.75v937.5c0 10.367 8.3984 18.75 18.75 18.75h637.5c10.352 0 18.75-8.3828 18.75-18.75v-787.5c0-4.9883-1.9688-9.75-5.4922-13.258zm-425.76 331.99h225c10.352 0 18.75 8.3828 18.75 18.75 0 10.367-8.3984 18.75-18.75 18.75h-225c-10.352 0-18.75-8.3828-18.75-18.75 0-10.367 8.3984-18.75 18.75-18.75zm487.5 375.04h-487.5c-10.352 0-18.75-8.3828-18.75-18.75 0-10.367 8.3984-18.75 18.75-18.75h487.5c10.352 0 18.75 8.3828 18.75 18.75 0 10.367-8.3984 18.75-18.75 18.75zm0-112.5h-487.5c-10.352 0-18.75-8.3828-18.75-18.75 0-10.367 8.3984-18.75 18.75-18.75h487.5c10.352 0 18.75 8.3828 18.75 18.75 0 10.367-8.3984 18.75-18.75 18.75zm0-112.52h-487.5c-10.352 0-18.75-8.3828-18.75-18.75s8.3984-18.75 18.75-18.75h487.5c10.352 0 18.75 8.3828 18.75 18.75s-8.3984 18.75-18.75 18.75zm37.5-300h-112.5c-10.352 0-18.75-8.3828-18.75-18.75v-112.5c0-10.367 8.3984-18.75 18.75-18.75s18.75 8.3828 18.75 18.75v93.75h93.75c10.352 0 18.75 8.3828 18.75 18.75s-8.3984 18.75-18.75 18.75z"/>
 </g>
</svg>
