<?xml version="1.0" encoding="UTF-8"?>
<svg width="1200pt" height="1200pt" version="1.1" viewBox="0 0 1200 1200" xmlns="http://www.w3.org/2000/svg">
 <path d="m663.32 142.31 105.66 214.08h0.046875c10.266 20.859 30.141 35.297 53.156 38.625l236.26 34.312 0.046875 0.046875c26.578 3.8438 48.703 22.5 57 48.047 8.2969 25.594 1.4062 53.672-17.859 72.422l-170.95 166.64c-16.688 16.266-24.281 39.656-20.344 62.531l40.359 235.31c4.5469 26.531-6.3281 53.297-28.078 69.094-21.75 15.844-50.625 17.906-74.391 5.3906l-211.31-111.09h-0.046874c-20.578-10.828-45.141-10.828-65.719 0l-211.36 111.09c-23.766 12.516-52.641 10.453-74.391-5.3906-21.75-15.797-32.625-42.562-28.078-69.094l40.359-235.31c3.9375-22.875-3.6562-46.266-20.344-62.531l-170.95-166.64c-19.266-18.75-26.156-46.828-17.859-72.422 8.2969-25.547 30.422-44.203 57-48.047l236.26-34.312 0.046875-0.046875c23.016-3.3281 42.891-17.766 53.156-38.625l105.66-214.08h0.046875c11.859-24.141 36.422-39.422 63.328-39.422s51.469 15.281 63.328 39.422z" fill="#fff"/>
</svg>
