<?xml version="1.0" encoding="UTF-8"?>
<svg width="1200pt" height="1200pt" version="1.1" viewBox="0 0 1200 1200" xmlns="http://www.w3.org/2000/svg">
 <path d="m968.06 936.19-104.34-98.906v34.875c0 9.9375-8.0625 18-18 18h-214.03v92.016h214.03c9.9375 0 18 8.0625 18 18v34.875l104.34-98.906zm-109.97-153.71 149.11 141.32c6.8438 7.1719 6.5156 18.562-0.65625 25.406l-147.61 139.87c-3.2812 3.5625-8.0156 5.8125-13.219 5.8125-9.9375 0-18-8.0625-18-18v-58.688h-46.078v139.82h274.22v-443.63h-274.22v139.82h46.078v-58.688c0.046875-4.4531 1.6875-8.9062 4.9688-12.375 6.8438-7.1719 18.234-7.4531 25.406-0.65625zm-112.45 235.69h-131.95c-9.9375 0-18-8.0625-18-18v-128.02c0-9.9375 8.0625-18 18-18h131.95v-157.82c0-9.9375 8.0625-18 18-18h96.938c-24.844-34.172-56.766-62.953-93.469-84.188-43.922-25.406-94.922-39.984-149.16-39.984h-173.9c-82.453 0-157.45 33.75-211.82 88.125-54.375 54.328-88.125 129.32-88.125 211.82v154.4c100.92 54.75 201.74 86.859 302.48 97.734 99.609 10.734 199.31 0.75 299.06-28.547v-59.578zm-57-910.92c-40.312-40.312-96.094-65.297-157.69-65.297-61.547 0-117.28 24.938-157.64 65.297-40.363 40.359-65.297 96.094-65.297 157.64 0 61.547 24.938 117.28 65.297 157.64 40.359 40.359 96.094 65.297 157.64 65.297 61.172 0 116.58-24.609 157.22-64.828 40.781-40.781 65.719-96.516 65.719-158.11 0-61.547-24.938-117.28-65.297-157.64z" fill="#fff"/>
</svg>
