<?xml version="1.0" encoding="UTF-8"?>
<svg width="1200pt" height="1200pt" version="1.1" viewBox="0 0 1200 1200" xmlns="http://www.w3.org/2000/svg">
 <g fill="#fff">
  <path d="m1044 515-50-46-125.5-114.5c-7.5-6.5-18-8.5-27-4.5s-15 13-15 23v99h-187.5c-14 0-25 11-25 25v207c0 13.5 11 25 25 25h187.5v98c0 10 6 19 15 23 3.5 1 6.5 2 10 2 6.5 0 12.5-2.5 17-6.5l125.5-114.5 50-46 73-66.5c5-5 8-11.5 8-18.5s-3-13.5-8-18.5z"/>
  <path d="m584.5 253v193c13.5-15 33-24 54.5-24h137.5v-49c0-29.5 17.5-56.5 44.5-68.5 9.5-4.5 20-6.5 30.5-6.5 18 0 35.5 6.5 49.5 18.5l93 85 33.5 30.5 16.5 15v-169c0-41.5-33.5-75-75-75h-384.5z"/>
  <path d="m639 779c-21.5 0-41-9-54.5-24v241.5h384.5c41.5 0 75-33.5 75-75v-168.5l-16 15-34 31-92 83.5c-14 12.5-32 19.5-50.5 19.5-10 0-18-2-22.5-3.5-2-0.5-5.5-2-8-3-27-12-44.5-39-44.5-68.5v-48z"/>
  <path d="m124 1007 309.5 113.5c8.5 3 17.5 4.5 26 4.5 15 0 30-4.5 43-13.5 20-14 32-37 32-61.5v-900c0-24.5-12-47.5-32-61.5s-46-17.5-69-9l-309.5 113c-29 11-49 39.5-49 70.5v673.5c0 31.5 20 59.5 49 70.5z"/>
 </g>
</svg>
