<?xml version="1.0" encoding="UTF-8"?>
<svg width="1200pt" height="1200pt" version="1.1" viewBox="0 0 1200 1200" xmlns="http://www.w3.org/2000/svg">
 <path d="m900 800h50c27.613 0 50 22.387 50 50s-22.387 50-50 50h-50v50c0 27.613-22.387 50-50 50s-50-22.387-50-50v-50h-50c-27.613 0-50-22.387-50-50s22.387-50 50-50h50v-50c0-27.613 22.387-50 50-50s50 22.387 50 50zm-356.93-206.51c-110.64-25.77-193.07-125-193.07-243.49 0-138.07 111.93-250 250-250s250 111.93 250 250c0 35.766-7.5117 69.777-21.039 100.54-114.76 5.9492-216.72 60.262-285.89 142.95zm-5.3359 506.51h-337.73c-27.613 0-50-22.387-50-50v-200c0-110.46 89.543-200 200-200h100c13.262 0 25.98 5.2695 35.355 14.645l6.6719 6.6758c-16.496 32.988-28.57 68.574-35.438 105.98l-27.301-27.301h-79.289c-55.227 0-100 44.773-100 100v150h229.07c14.688 36.285 34.547 69.922 58.656 100zm62.27-600c82.844 0 150-67.156 150-150s-67.156-150-150-150-150 67.156-150 150 67.156 150 150 150zm250 650c-165.68 0-300-134.32-300-300s134.32-300 300-300 300 134.32 300 300-134.32 300-300 300zm0-100c110.46 0 200-89.543 200-200s-89.543-200-200-200-200 89.543-200 200 89.543 200 200 200z" fill="#fff"/>
</svg>
