<?xml version="1.0" encoding="UTF-8"?>
<svg width="1200pt" height="1200pt" version="1.1" viewBox="0 0 1200 1200" xmlns="http://www.w3.org/2000/svg">
 <g fill="#ff814a">
  <path d="m1054.8 388.8-417.6 252c-22.801 14.398-51.602 14.398-75.602 0l-416.4-252c-26.398-15.602-26.398-54 0-69.602l417.6-248.4c22.801-13.199 51.602-13.199 74.398 0l417.6 248.4c26.398 15.602 26.398 54 0 69.602z"/>
  <path d="m1054.8 562.8-109.2-64.801-308.4 186c-22.801 14.398-51.602 14.398-75.602 0l-307.2-186-109.2 64.801c-26.398 15.602-26.398 54 0 69.602l417.6 250.8c22.801 14.398 51.602 14.398 75.602 0l417.6-250.8c25.195-15.602 25.195-54.004-1.2031-69.602z"/>
  <path d="m1054.8 808.8-109.2-64.801-308.4 184.8c-22.801 14.398-51.602 14.398-75.602 0l-307.2-186-109.2 64.801c-26.398 15.602-26.398 54 0 69.602l417.6 250.8c22.801 14.398 51.602 14.398 75.602 0l417.6-250.8c25.195-14.402 25.195-52.805-1.2031-68.402z"/>
 </g>
</svg>
