<?xml version="1.0" encoding="UTF-8"?>
<svg width="1200pt" height="1200pt" version="1.1" viewBox="0 0 1200 1200" xmlns="http://www.w3.org/2000/svg">
 <g fill="#ff814a">
  <path d="m600 520.92c55.219 0 108.19-21.938 147.24-60.984 39.047-39.047 60.984-92.016 60.984-147.24 0-55.219-21.938-108.14-60.984-147.19-39.047-39.047-92.016-60.984-147.24-60.984s-108.19 21.938-147.24 60.984c-39.047 39.047-60.984 91.969-60.984 147.19 0.09375 55.219 22.078 108.09 61.125 147.14 39 39 91.922 60.984 147.1 61.078z"/>
  <path d="m984.71 753.94c-111.19-82.734-246.1-127.4-384.71-127.4-138.61 0-273.52 44.672-384.71 127.4-32.016 23.484-55.641 56.578-67.5 94.453-11.812 37.875-11.203 78.562 1.7344 116.06 12.188 38.297 36.375 71.672 68.953 95.25 32.531 23.578 71.812 36.094 111.98 35.766h539.06c40.172 0.32812 79.453-12.188 111.98-35.766 32.578-23.578 56.766-56.953 68.953-95.25 12.938-37.5 13.547-78.188 1.7344-116.06-11.859-37.875-35.484-70.969-67.5-94.453z"/>
 </g>
</svg>
